{"title":"Touching The Void - 2003 (DvdRip Xvid) Rojo ","uid":6032857,"size":1050074282,"categoryP":"video","categoryS":"movies","magnet":"?xt=urn:btih:5d6191d77b15f3a758a23006ea8f2caf79a39190&amp;dn=Touching+The+Void+-+2003+%28DvdRip+Xvid%29+Rojo+&amp;tr=udp%3A%2F%2Ftracker.openbittorrent.com%3A80&amp;tr=udp%3A%2F%2Fopen.demonii.com%3A1337&amp;tr=udp%3A%2F%2Ftracker.coppersurfer.tk%3A6969&amp;tr=udp%3A%2F%2Fexodus.desync.com%3A6969","seeders":1,"leechers":0,"uploader":"neon","files":-1,"time":1292138952,"description":"In the mid-80's two young climbers attempted to reach the summit of Siula Grande in Peru; a feat that had previously been attempted but never achieved. With an extra man looking after base camp, Simon and Joe set off to scale the mount in one long push over several days. The peak is reached, however on the descent Joe falls and breaks his leg. Despite what it means, the two continue with Simon letting Joe out on a rope for 300 meters, then descending to join him and so on. However when Joe goes out over an overhang with no way of climbing back up, Simon makes the decision to cut the rope. Joe falls into a crevice and Simon, assuming him dead, continues back down. Joe however survives the fall and was lucky to hit a ledge in the crevice. This is the story of how he got back down.\n &lt;a href=&quot;\nhttp://www.imdb.com/title/tt0379557&quot; rel=&quot;nofollow&quot; target=&quot;_NEW&quot;&gt;\nhttp://www.imdb.com/title/tt0379557&lt;/a&gt;\n\n &lt;a href=&quot;\nhttp://img713.imageshack.us/img713/200/88818660.png&quot; rel=&quot;nofollow&quot; target=&quot;_NEW&quot;&gt;\nhttp://img713.imageshack.us/img713/200/88818660.png&lt;/a&gt; &lt;a href=&quot;\nhttp://img140.imageshack.us/img140/8902/77642441.png&quot; rel=&quot;nofollow&quot; target=&quot;_NEW&quot;&gt;\nhttp://img140.imageshack.us/img140/8902/77642441.png&lt;/a&gt; &lt;a href=&quot;\nhttp://img408.imageshack.us/img408/5010/22087077.png&quot; rel=&quot;nofollow&quot; target=&quot;_NEW&quot;&gt;\nhttp://img408.imageshack.us/img408/5010/22087077.png&lt;/a&gt; &lt;a href=&quot;\nhttp://img442.imageshack.us/img442/9228/66825609.png&quot; rel=&quot;nofollow&quot; target=&quot;_NEW&quot;&gt;\nhttp://img442.imageshack.us/img442/9228/66825609.png&lt;/a&gt; &lt;a href=&quot;\nhttp://img51.imageshack.us/img51/5906/54034661.png&quot; rel=&quot;nofollow&quot; target=&quot;_NEW&quot;&gt;\nhttp://img51.imageshack.us/img51/5906/54034661.png&lt;/a&gt; &lt;a href=&quot;\nhttp://img155.imageshack.us/img155/2531/15910894.png&quot; rel=&quot;nofollow&quot; target=&quot;_NEW&quot;&gt;\nhttp://img155.imageshack.us/img155/2531/15910894.png&lt;/a&gt; &lt;a href=&quot;\nhttp://img249.imageshack.us/img249/8877/69839739.png&quot; rel=&quot;nofollow&quot; target=&quot;_NEW&quot;&gt;\nhttp://img249.imageshack.us/img249/8877/69839739.png&lt;/a&gt;\n\nGeneral\nComplete name : Touching The Void - 2003 ( DvdRip,Xvid)\\Touching The Void.avi\nFormat : AVI\nFormat/Info : Audio Video Interleave\nFile size : 1 001 MiB\nDuration : 1h 41mn\nOverall bit rate : 1 372 Kbps\nWriting application : VirtualDubMod 1.5.4.1 (build 2178/release)\nWriting library : VirtualDubMod build 2178/release\n\nVideo\nID : 0\nFormat : MPEG-4 Visual\nFormat profile : Advanced Simple@L5\nFormat settings, BVOP : Yes\nFormat settings, QPel : No\nFormat settings, GMC : No warppoints\nFormat settings, Matrix : Default (H.263)\nMuxing mode : Packed bitstream\nCodec ID : XVID\nCodec ID/Hint : XviD\nDuration : 1h 41mn\nBit rate : 1 141 Kbps\nWidth : 720 pixels\nHeight : 416 pixels\nDisplay aspect ratio : 16:9\nFrame rate : 25.000 fps\nColor space : YUV\nChroma subsampling : 4:2:0\nBit depth : 8 bits\nScan type : Progressive\nBits/(Pixel*Frame) : 0.152\nStream size : 832 MiB (83%)\nWriting library : XviD 1.2.1 (UTC 2008-12-04)\n\nAudio\nID : 1\nFormat : AC-3\nFormat/Info : Audio Coding 3\nMode extension : CM (complete main)\nCodec ID : 2000\nDuration : 1h 41mn\nBit rate mode : Constant\nBit rate : 224 Kbps\nChannel(s) : 2 channels\nChannel positions : Front: L R\nSampling rate : 48.0 KHz\nBit depth : 16 bits\nStream size : 163 MiB (16%)\nAlignment : Split accross interleaves\nInterleave, duration : 80 ms (2.00 video frames)\nInterleave, preload duration : 500 ms\nLanguage : English\n\n","torrent":{"xt":"urn:btih:5d6191d77b15f3a758a23006ea8f2caf79a39190","amp;dn":"Touching+The+Void+-+2003+%28DvdRip+Xvid%29+Rojo+","amp;tr":["udp%3A%2F%2Ftracker.openbittorrent.com%3A80","udp%3A%2F%2Fopen.demonii.com%3A1337","udp%3A%2F%2Ftracker.coppersurfer.tk%3A6969","udp%3A%2F%2Fexodus.desync.com%3A6969"],"infoHash":"5d6191d77b15f3a758a23006ea8f2caf79a39190","infoHashBuffer":{"type":"Buffer","data":[93,97,145,215,123,21,243,167,88,162,48,6,234,143,44,175,121,163,145,144]},"announce":[],"urlList":[]}}